HIERARCHY
ROOT Hips
{
  OFFSET 11.813 26.972 -263.413
  CHANNELS 6 Xposition Yposition Zposition Zrotation Xrotation Yrotation
  JOINT LeftUpLeg
  {
    OFFSET 7.837 -7.277 2.364
    CHANNELS 6 Xposition Yposition Zposition Zrotation Xrotation Yrotation
    JOINT LeftLeg
    {
      OFFSET -0.000 -53.027 0.000
      CHANNELS 6 Xposition Yposition Zposition Zrotation Xrotation Yrotation
      JOINT LeftFoot
      {
        OFFSET -0.000 -41.119 -0.000
        CHANNELS 6 Xposition Yposition Zposition Zrotation Xrotation Yrotation
        End Site
        {
          OFFSET 0.000 -7.887 4.554
        }
      }
    }
  }
  JOINT RightUpLeg
  {
    OFFSET -7.626 -7.707 2.228
    CHANNELS 6 Xposition Yposition Zposition Zrotation Xrotation Yrotation
    JOINT RightLeg
    {
      OFFSET -0.000 -52.329 0.000
      CHANNELS 6 Xposition Yposition Zposition Zrotation Xrotation Yrotation
      JOINT RightFoot
      {
        OFFSET -0.000 -42.495 -0.000
        CHANNELS 6 Xposition Yposition Zposition Zrotation Xrotation Yrotation
        End Site
        {
          OFFSET 0.000 -7.596 4.386
        }
      }
    }
  }
  JOINT Spine
  {
    OFFSET 0.000 5.964 -5.964
    CHANNELS 6 Xposition Yposition Zposition Zrotation Xrotation Yrotation
    JOINT LeftShoulder
    {
      OFFSET -0.000 37.393 0.000
      CHANNELS 6 Xposition Yposition Zposition Zrotation Xrotation Yrotation
      JOINT LeftArm
      {
        OFFSET 21.000 0.000 -0.000
        CHANNELS 6 Xposition Yposition Zposition Zrotation Xrotation Yrotation
        JOINT LeftForeArm
        {
          OFFSET 24.650 0.000 0.000
          CHANNELS 6 Xposition Yposition Zposition Zrotation Xrotation Yrotation
          JOINT LeftHand
          {
            OFFSET 27.619 -0.000 -0.000
            CHANNELS 6 Xposition Yposition Zposition Zrotation Xrotation Yrotation
            JOINT LeftHandThumb1
            {
            OFFSET 4.970 -0.620 3.390
            CHANNELS 6 Xposition Yposition Zposition Zrotation Xrotation Yrotation
              JOINT LeftHandThumb2
              {
              OFFSET 2.150 -0.000 0.000
              CHANNELS 6 Xposition Yposition Zposition Zrotation Xrotation Yrotation
                JOINT LeftHandThumb3
                {
                OFFSET 2.200 -0.000 0.000
                CHANNELS 6 Xposition Yposition Zposition Zrotation Xrotation Yrotation
                  JOINT LeftHandThumb4
                  {
                  OFFSET 1.700 -0.000 0.000
                  CHANNELS 6 Xposition Yposition Zposition Zrotation Xrotation Yrotation
                  }
                }
              }
            }
            JOINT LeftHandIndex1
            {
            OFFSET 8.730 0.680 2.070
            CHANNELS 6 Xposition Yposition Zposition Zrotation Xrotation Yrotation
              JOINT LeftHandIndex2
              {
              OFFSET 2.670 -0.000 0.000
              CHANNELS 6 Xposition Yposition Zposition Zrotation Xrotation Yrotation
                JOINT LeftHandIndex3
                {
                OFFSET 2.130 -0.000 0.000
                CHANNELS 6 Xposition Yposition Zposition Zrotation Xrotation Yrotation
                  JOINT LeftHandIndex4
                  {
                  OFFSET 1.800 -0.000 0.000
                  CHANNELS 6 Xposition Yposition Zposition Zrotation Xrotation Yrotation
                  }
                }
              }
            }
            JOINT LeftHandMiddle1
            {
            OFFSET 9.220 0.670 0.550
            CHANNELS 6 Xposition Yposition Zposition Zrotation Xrotation Yrotation
              JOINT LeftHandMiddle2
              {
              OFFSET 2.660 -0.000 0.000
              CHANNELS 6 Xposition Yposition Zposition Zrotation Xrotation Yrotation
                JOINT LeftHandMiddle3
                {
                OFFSET 2.280 -0.000 0.000
                CHANNELS 6 Xposition Yposition Zposition Zrotation Xrotation Yrotation
                  JOINT LeftHandMiddle4
                  {
                  OFFSET 1.500 -0.000 0.000
                  CHANNELS 6 Xposition Yposition Zposition Zrotation Xrotation Yrotation
                  }
                }
              }
            }
            JOINT LeftHandRing1
            {
            OFFSET 9.250 0.670 -1.130
            CHANNELS 6 Xposition Yposition Zposition Zrotation Xrotation Yrotation
              JOINT LeftHandRing2
              {
              OFFSET 2.470 -0.000 0.000
              CHANNELS 6 Xposition Yposition Zposition Zrotation Xrotation Yrotation
                JOINT LeftHandRing3
                {
                OFFSET 2.210 -0.000 0.000
                CHANNELS 6 Xposition Yposition Zposition Zrotation Xrotation Yrotation
                  JOINT LeftHandRing4
                  {
                  OFFSET 1.800 -0.000 0.000
                  CHANNELS 6 Xposition Yposition Zposition Zrotation Xrotation Yrotation
                  }
                }
              }
            }
            JOINT LeftHandPinky1
            {
            OFFSET 9.350 0.660 -2.720
            CHANNELS 6 Xposition Yposition Zposition Zrotation Xrotation Yrotation
              JOINT LeftHandPinky2
              {
              OFFSET 1.630 -0.000 0.000
              CHANNELS 6 Xposition Yposition Zposition Zrotation Xrotation Yrotation
                JOINT LeftHandPinky3
                {
                OFFSET 1.710 -0.000 0.000
                CHANNELS 6 Xposition Yposition Zposition Zrotation Xrotation Yrotation
                  JOINT LeftHandPinky4
                  {
                  OFFSET 1.800 -0.000 0.000
                  CHANNELS 6 Xposition Yposition Zposition Zrotation Xrotation Yrotation
                  }
                }
              }
            }
          }
        }
      }
    }
    JOINT RightShoulder
    {
      OFFSET -0.000 37.393 0.000
      CHANNELS 6 Xposition Yposition Zposition Zrotation Xrotation Yrotation
      JOINT RightArm
      {
        OFFSET -21.373 0.000 -0.000
        CHANNELS 6 Xposition Yposition Zposition Zrotation Xrotation Yrotation
        JOINT RightForeArm
        {
          OFFSET -24.431 0.000 0.000
          CHANNELS 6 Xposition Yposition Zposition Zrotation Xrotation Yrotation
          JOINT RightHand
          {
            OFFSET -25.660 0.000 -0.000
            CHANNELS 6 Xposition Yposition Zposition Zrotation Xrotation Yrotation
            JOINT RightHandThumb1
            {
            OFFSET -4.970 -0.620 3.390
            CHANNELS 6 Xposition Yposition Zposition Zrotation Xrotation Yrotation
              JOINT RightHandThumb2
              {
              OFFSET -2.150 0.000 0.000
              CHANNELS 6 Xposition Yposition Zposition Zrotation Xrotation Yrotation
                JOINT RightHandThumb3
                {
                OFFSET -2.200 0.000 0.000
                CHANNELS 6 Xposition Yposition Zposition Zrotation Xrotation Yrotation
                  JOINT RightHandThumb4
                  {
                  OFFSET -1.700 0.000 0.000
                  CHANNELS 6 Xposition Yposition Zposition Zrotation Xrotation Yrotation
                  }
                }
              }
            }
            JOINT RightHandIndex1
            {
            OFFSET -8.730 0.680 2.070
            CHANNELS 6 Xposition Yposition Zposition Zrotation Xrotation Yrotation
              JOINT RightHandIndex2
              {
              OFFSET -2.670 0.000 0.000
              CHANNELS 6 Xposition Yposition Zposition Zrotation Xrotation Yrotation
                JOINT RightHandIndex3
                {
                OFFSET -2.130 0.000 0.000
                CHANNELS 6 Xposition Yposition Zposition Zrotation Xrotation Yrotation
                  JOINT RightHandIndex4
                  {
                  OFFSET -1.800 0.000 0.000
                  CHANNELS 6 Xposition Yposition Zposition Zrotation Xrotation Yrotation
                  }
                }
              }
            }
            JOINT RightHandMiddle1
            {
            OFFSET -9.220 0.670 0.550
            CHANNELS 6 Xposition Yposition Zposition Zrotation Xrotation Yrotation
              JOINT RightHandMiddle2
              {
              OFFSET -2.660 0.000 0.000
              CHANNELS 6 Xposition Yposition Zposition Zrotation Xrotation Yrotation
                JOINT RightHandMiddle3
                {
                OFFSET -2.280 0.000 0.000
                CHANNELS 6 Xposition Yposition Zposition Zrotation Xrotation Yrotation
                  JOINT RightHandMiddle4
                  {
                  OFFSET -1.500 0.000 0.000
                  CHANNELS 6 Xposition Yposition Zposition Zrotation Xrotation Yrotation
                  }
                }
              }
            }
            JOINT RightHandRing1
            {
            OFFSET -9.250 0.670 -1.130
            CHANNELS 6 Xposition Yposition Zposition Zrotation Xrotation Yrotation
              JOINT RightHandRing2
              {
              OFFSET -2.470 0.000 0.000
              CHANNELS 6 Xposition Yposition Zposition Zrotation Xrotation Yrotation
                JOINT RightHandRing3
                {
                OFFSET -2.210 0.000 0.000
                CHANNELS 6 Xposition Yposition Zposition Zrotation Xrotation Yrotation
                  JOINT RightHandRing4
                  {
                  OFFSET -1.800 0.000 0.000
                  CHANNELS 6 Xposition Yposition Zposition Zrotation Xrotation Yrotation
                  }
                }
              }
            }
            JOINT RightHandPinky1
            {
            OFFSET -9.350 0.660 -2.720
            CHANNELS 6 Xposition Yposition Zposition Zrotation Xrotation Yrotation
              JOINT RightHandPinky2
              {
              OFFSET -1.630 0.000 0.000
              CHANNELS 6 Xposition Yposition Zposition Zrotation Xrotation Yrotation
                JOINT RightHandPinky3
                {
                OFFSET -1.710 0.000 0.000
                CHANNELS 6 Xposition Yposition Zposition Zrotation Xrotation Yrotation
                  JOINT RightHandPinky4
                  {
                  OFFSET -1.800 0.000 0.000
                  CHANNELS 6 Xposition Yposition Zposition Zrotation Xrotation Yrotation
                  }
                }
              }
            }
          }
        }
      }
    }
    JOINT Neck
    {
      OFFSET -0.000 37.393 0.000
      CHANNELS 6 Xposition Yposition Zposition Zrotation Xrotation Yrotation
      JOINT Head
      {
        OFFSET -0.000 19.280 -0.000
        CHANNELS 6 Xposition Yposition Zposition Zrotation Xrotation Yrotation
        End Site
        {
          OFFSET -0.000 0.077 -0.000
        }
      }
    }
  }
}
MOTION
Frames:	5
Frame Time:	0.0333333
12.6563 26.4706 -271.409 3.95291 22.4624 -9.11104 7.82048 -6.69711 3.08456 5.66187 -33.4732 2.87508 -1.49012e-06 -51.1411 -2.38419e-05 -7.19886 21.007 -1.82912e-06 2.98023e-06 -41.0742 -7.15256e-05 7.31844 -14.8503 5.9426 -7.4996 -7.86587 3.03729 -3.2369 -13.4323 -1.50646 0 -52.121 -4.76837e-05 6.19096 20.7136 1.82555e-06 0 -43.8878 2.38419e-05 -15.5436 -12.2678 -12.0674 2.98023e-06 5.40998 -5.40993 1.46447 -16.8871 1.43191 0 37.3926 -2.38419e-05 -35.4994 1.10991e-05 -5.2606 21.2891 1.49012e-05 0 -41.9208 34.8805 8.54423 24.5503 -1.19209e-05 -2.38419e-05 -1.02061e-06 -4.0765e-06 -118.112 29.6102 0 -1.78814e-05 6.56692 0.0866764 -0.0729029 0.0062 0.0497 0.0339 0 0 0 0 0.0215 0 0 0 0 0 0.022 0 0 0 0 0 0.017 0 0 0 0 -0.0068 0.0873 0.0207 0 0 0 0 0.0267 0 0 0 0 0 0.0213 0 0 0 0 0 0.018 0 0 0 0 -0.0067 0.0922 0.0055 0 0 0 0 0.0266 0 0 0 0 0 0.0228 0 0 0 0 0 0.015 0 0 0 0 -0.0067 0.0925 -0.0113 0 0 0 0 0.0247 0 0 0 0 0 0.0221 0 0 0 0 0 0.018 0 0 0 0 -0.0066 0.0935 -0.0272 0 0 0 0 0.0163 0 0 0 0 0 0.0171 0 0 0 0 0 0.018 0 0 0 0 0 37.3926 -2.38419e-05 35.8758 -3.9487e-06 5.18609 -21.5941 1.19209e-05 7.15256e-05 40.3321 30.0125 2.24907 -23.8918 -2.38419e-05 4.76837e-05 -2.76448e-05 1.05702e-05 93.5116 -26.0964 -2.38419e-05 0 6.50034 -0.46097 12.8028 -0.0062 0.0497 0.0339 0 0 0 0 0.0215 0 0 0 0 0 0.022 0 0 0 0 0 0.017 0 0 0 0 0.0068 0.0873 0.0207 0 0 0 0 0.0267 0 0 0 0 0 0.0213 0 0 0 0 0 0.018 0 0 0 0 0.0067 0.0922 0.0055 0 0 0 0 0.0266 0 0 0 0 0 0.0228 0 0 0 0 0 0.015 0 0 0 0 0.0067 0.0925 -0.0113 0 0 0 0 0.0247 0 0 0 0 0 0.0221 0 0 0 0 0 0.018 0 0 0 0 0.0066 0.0935 -0.0272 0 0 0 0 0.0163 0 0 0 0 0 0.0171 0 0 0 0 0 0.018 0 0 0 0 0 37.3926 -2.38419e-05 5.29125 -1.32189 0.122413 -7.45058e-06 18.2484 4.76837e-05 8.80454e-06 -9.60495e-06 3.41509e-06 
12.1683 25.1221 -275.025 3.73556 26.308 -7.38738 7.86961 -6.49357 3.5285 6.35019 -39.2575 3.7573 -8.9407e-06 -50.3271 -2.38419e-05 -6.23391 29.5585 3.4353e-06 2.98023e-06 -42.0966 0 9.32148 -19.2305 8.10176 -7.50929 -7.72825 3.50146 -2.07842 -18.1058 -2.03403 5.96046e-06 -51.5909 0 5.93548 20.9974 0 0 -42.8247 0 -15.6786 -8.39582 -11.2921 1.49012e-06 5.24583 -5.24585 1.6621 -20.7556 1.40426 -1.19209e-05 37.3926 7.15256e-05 -36.1306 1.28066e-05 -4.32907 21.5887 -2.98023e-06 4.76837e-05 -41.1961 41.2654 6.62768 24.4707 -1.19209e-05 2.38419e-05 2.55804e-05 -8.63903e-06 -112.78 28.94 0 1.19209e-05 15.2797 0.0141336 -6.64746 0.0062 0.0497 0.0339 0 0 0 0 0.0215 0 0 0 0 0 0.022 0 0 0 0 0 0.017 0 0 0 0 -0.0068 0.0873 0.0207 0 0 0 0 0.0267 0 0 0 0 0 0.0213 0 0 0 0 0 0.018 0 0 0 0 -0.0067 0.0922 0.0055 0 0 0 0 0.0266 0 0 0 0 0 0.0228 0 0 0 0 0 0.015 0 0 0 0 -0.0067 0.0925 -0.0113 0 0 0 0 0.0247 0 0 0 0 0 0.0221 0 0 0 0 0 0.018 0 0 0 0 -0.0066 0.0935 -0.0272 0 0 0 0 0.0163 0 0 0 0 0 0.0171 0 0 0 0 0 0.018 0 0 0 0 -1.19209e-05 37.3926 7.15256e-05 36.3444 -3.09493e-06 4.29839 -21.7425 8.9407e-06 -7.15256e-05 39.7061 31.8777 2.30592 -24.1196 -1.19209e-05 2.38419e-05 8.18022e-05 4.96136e-06 93.6966 -25.994 0 -1.19209e-05 -5.09742 -0.828048 10.781 -0.0062 0.0497 0.0339 0 0 0 0 0.0215 0 0 0 0 0 0.022 0 0 0 0 0 0.017 0 0 0 0 0.0068 0.0873 0.0207 0 0 0 0 0.0267 0 0 0 0 0 0.0213 0 0 0 0 0 0.018 0 0 0 0 0.0067 0.0922 0.0055 0 0 0 0 0.0266 0 0 0 0 0 0.0228 0 0 0 0 0 0.015 0 0 0 0 0.0067 0.0925 -0.0113 0 0 0 0 0.0247 0 0 0 0 0 0.0221 0 0 0 0 0 0.018 0 0 0 0 0.0066 0.0935 -0.0272 0 0 0 0 0.0163 0 0 0 0 0 0.0171 0 0 0 0 0 0.018 0 0 0 0 -1.19209e-05 37.3926 7.15256e-05 4.12622 0.908848 -0.0655593 4.47035e-06 17.7654 -7.15256e-05 1.05655e-05 -1.02453e-05 8.53774e-07 
12.1683 25.1221 -275.025 3.73556 26.308 -7.38738 7.86961 -6.49357 3.5285 6.35019 -39.2575 3.7573 -8.9407e-06 -50.3271 -2.38419e-05 -6.23391 29.5585 3.4353e-06 2.98023e-06 -42.0966 0 9.32148 -19.2305 8.10176 -7.50929 -7.72825 3.50146 -2.07842 -18.1058 -2.03403 5.96046e-06 -51.5909 0 5.93548 20.9974 0 0 -42.8247 0 -15.6786 -8.39582 -11.2921 1.49012e-06 5.24583 -5.24585 1.6621 -20.7556 1.40426 -1.19209e-05 37.3926 7.15256e-05 -36.1306 1.28066e-05 -4.32907 21.5887 -2.98023e-06 4.76837e-05 -41.1961 41.2654 6.62768 24.4707 -1.19209e-05 2.38419e-05 2.55804e-05 -8.63903e-06 -112.78 28.94 0 1.19209e-05 15.2797 0.0141336 -6.64746 0.0062 0.0497 0.0339 0 0 0 0 0.0215 0 0 0 0 0 0.022 0 0 0 0 0 0.017 0 0 0 0 -0.0068 0.0873 0.0207 0 0 0 0 0.0267 0 0 0 0 0 0.0213 0 0 0 0 0 0.018 0 0 0 0 -0.0067 0.0922 0.0055 0 0 0 0 0.0266 0 0 0 0 0 0.0228 0 0 0 0 0 0.015 0 0 0 0 -0.0067 0.0925 -0.0113 0 0 0 0 0.0247 0 0 0 0 0 0.0221 0 0 0 0 0 0.018 0 0 0 0 -0.0066 0.0935 -0.0272 0 0 0 0 0.0163 0 0 0 0 0 0.0171 0 0 0 0 0 0.018 0 0 0 0 -1.19209e-05 37.3926 7.15256e-05 36.3444 -3.09493e-06 4.29839 -21.7425 8.9407e-06 -7.15256e-05 39.7061 31.8777 2.30592 -24.1196 -1.19209e-05 2.38419e-05 8.18022e-05 4.96136e-06 93.6966 -25.994 0 -1.19209e-05 -5.09742 -0.828048 10.781 -0.0062 0.0497 0.0339 0 0 0 0 0.0215 0 0 0 0 0 0.022 0 0 0 0 0 0.017 0 0 0 0 0.0068 0.0873 0.0207 0 0 0 0 0.0267 0 0 0 0 0 0.0213 0 0 0 0 0 0.018 0 0 0 0 0.0067 0.0922 0.0055 0 0 0 0 0.0266 0 0 0 0 0 0.0228 0 0 0 0 0 0.015 0 0 0 0 0.0067 0.0925 -0.0113 0 0 0 0 0.0247 0 0 0 0 0 0.0221 0 0 0 0 0 0.018 0 0 0 0 0.0066 0.0935 -0.0272 0 0 0 0 0.0163 0 0 0 0 0 0.0171 0 0 0 0 0 0.018 0 0 0 0 -1.19209e-05 37.3926 7.15256e-05 4.12622 0.908848 -0.0655593 4.47035e-06 17.7654 -7.15256e-05 1.05655e-05 -1.02453e-05 8.53774e-07 
11.7888 23.5964 -278.127 3.36142 30.0594 -5.22701 7.85359 -6.23984 3.9892 6.69082 -44.893 3.94982 7.45058e-06 -49.4354 2.38419e-05 -5.38489 33.7056 0 -5.96046e-06 -42.7588 -7.15256e-05 11.9193 -23.3875 11.0127 -7.52054 -7.48485 3.96185 -1.37496 -22.6702 -2.62048 0 -50.9865 0 6.02483 21.2441 1.37403e-06 2.98023e-06 -41.909 -7.15256e-05 -15.9354 -4.50916 -10.5262 -1.49012e-06 5.11838 -5.11839 1.58665 -25.1443 1.3843 0 37.3926 -2.38419e-05 -36.7501 1.57948e-05 -3.11203 21.7535 5.96046e-06 7.15256e-05 -41.116 43.3737 5.96409 24.8182 1.19209e-05 -4.76837e-05 1.70465e-06 8.55347e-06 -112.542 29.0615 3.57628e-05 0 21.9142 -0.21343 -12.3395 0.0062 0.0497 0.0339 0 0 0 0 0.0215 0 0 0 0 0 0.022 0 0 0 0 0 0.017 0 0 0 0 -0.0068 0.0873 0.0207 0 0 0 0 0.0267 0 0 0 0 0 0.0213 0 0 0 0 0 0.018 0 0 0 0 -0.0067 0.0922 0.0055 0 0 0 0 0.0266 0 0 0 0 0 0.0228 0 0 0 0 0 0.015 0 0 0 0 -0.0067 0.0925 -0.0113 0 0 0 0 0.0247 0 0 0 0 0 0.0221 0 0 0 0 0 0.018 0 0 0 0 -0.0066 0.0935 -0.0272 0 0 0 0 0.0163 0 0 0 0 0 0.0171 0 0 0 0 0 0.018 0 0 0 0 0 37.3926 -2.38419e-05 37.2601 -2.24116e-06 3.07256 -22.0326 -1.78814e-05 -4.76837e-05 38.0483 34.8771 2.68173 -23.8679 2.38419e-05 -2.38419e-05 -0.000191504 6.30638e-06 94.7007 -24.3575 -1.19209e-05 2.98023e-06 -13.2777 -0.74932 10.1031 -0.0062 0.0497 0.0339 0 0 0 0 0.0215 0 0 0 0 0 0.022 0 0 0 0 0 0.017 0 0 0 0 0.0068 0.0873 0.0207 0 0 0 0 0.0267 0 0 0 0 0 0.0213 0 0 0 0 0 0.018 0 0 0 0 0.0067 0.0922 0.0055 0 0 0 0 0.0266 0 0 0 0 0 0.0228 0 0 0 0 0 0.015 0 0 0 0 0.0067 0.0925 -0.0113 0 0 0 0 0.0247 0 0 0 0 0 0.0221 0 0 0 0 0 0.018 0 0 0 0 0.0066 0.0935 -0.0272 0 0 0 0 0.0163 0 0 0 0 0 0.0171 0 0 0 0 0 0.018 0 0 0 0 0 37.3926 -2.38419e-05 3.27949 0.985432 -0.0564633 -2.6077e-06 16.9848 -2.38419e-05 9.97848e-06 -1.10991e-05 8.53774e-07 
11.7888 23.5964 -278.127 3.36142 30.0594 -5.22701 7.85359 -6.23984 3.9892 6.69082 -44.893 3.94982 7.45058e-06 -49.4354 2.38419e-05 -5.38489 33.7056 0 -5.96046e-06 -42.7588 -7.15256e-05 11.9193 -23.3875 11.0127 -7.52054 -7.48485 3.96185 -1.37496 -22.6702 -2.62048 0 -50.9865 0 6.02483 21.2441 1.37403e-06 2.98023e-06 -41.909 -7.15256e-05 -15.9354 -4.50916 -10.5262 -1.49012e-06 5.11838 -5.11839 1.58665 -25.1443 1.3843 0 37.3926 -2.38419e-05 -36.7501 1.57948e-05 -3.11203 21.7535 5.96046e-06 7.15256e-05 -41.116 43.3737 5.96409 24.8182 1.19209e-05 -4.76837e-05 1.70465e-06 8.55347e-06 -112.542 29.0615 3.57628e-05 0 21.9142 -0.21343 -12.3395 0.0062 0.0497 0.0339 0 0 0 0 0.0215 0 0 0 0 0 0.022 0 0 0 0 0 0.017 0 0 0 0 -0.0068 0.0873 0.0207 0 0 0 0 0.0267 0 0 0 0 0 0.0213 0 0 0 0 0 0.018 0 0 0 0 -0.0067 0.0922 0.0055 0 0 0 0 0.0266 0 0 0 0 0 0.0228 0 0 0 0 0 0.015 0 0 0 0 -0.0067 0.0925 -0.0113 0 0 0 0 0.0247 0 0 0 0 0 0.0221 0 0 0 0 0 0.018 0 0 0 0 -0.0066 0.0935 -0.0272 0 0 0 0 0.0163 0 0 0 0 0 0.0171 0 0 0 0 0 0.018 0 0 0 0 0 37.3926 -2.38419e-05 37.2601 -2.24116e-06 3.07256 -22.0326 -1.78814e-05 -4.76837e-05 38.0483 34.8771 2.68173 -23.8679 2.38419e-05 -2.38419e-05 -0.000191504 6.30638e-06 94.7007 -24.3575 -1.19209e-05 2.98023e-06 -13.2777 -0.74932 10.1031 -0.0062 0.0497 0.0339 0 0 0 0 0.0215 0 0 0 0 0 0.022 0 0 0 0 0 0.017 0 0 0 0 0.0068 0.0873 0.0207 0 0 0 0 0.0267 0 0 0 0 0 0.0213 0 0 0 0 0 0.018 0 0 0 0 0.0067 0.0922 0.0055 0 0 0 0 0.0266 0 0 0 0 0 0.0228 0 0 0 0 0 0.015 0 0 0 0 0.0067 0.0925 -0.0113 0 0 0 0 0.0247 0 0 0 0 0 0.0221 0 0 0 0 0 0.018 0 0 0 0 0.0066 0.0935 -0.0272 0 0 0 0 0.0163 0 0 0 0 0 0.0171 0 0 0 0 0 0.018 0 0 0 0 0 37.3926 -2.38419e-05 3.27949 0.985432 -0.0564633 -2.6077e-06 16.9848 -2.38419e-05 9.97848e-06 -1.10991e-05 8.53774e-07 
